# xmcd
#
# Track frame offsets: 
#        150
#        18431
#        38091
#        57949
#        78304
#        98521
#        122705
#        142131
#        159991
#        179554
#        197213
#
# Disc length: 3163 seconds
#
# Revision: 0
# Processed by: cddbd v1.5.2PL0 Copyright (c) Steve Scherf et al.
# Submitted via: ExactAudioCopyFreeDBPlugin 1.0
#
DISCID=8f0c590b
DTITLE=EMEL - ENSEN
DYEAR=2017
DGENRE=Trip-Hop
TTITLE0=Instant
TTITLE1=Ensen Dhai
TTITLE2=Layem
TTITLE3=Kaddesh
TTITLE4=Lost
TTITLE5=Thamlaton
TTITLE6=Pricess Melancholy
TTITLE7=Sallem
TTITLE8=Khayef
TTITLE9=Shkun Ena
TTITLE10=Fi Kolly Yawmen
EXTD=
EXTT0=
EXTT1=
EXTT2=
EXTT3=
EXTT4=
EXTT5=
EXTT6=
EXTT7=
EXTT8=
EXTT9=
EXTT10=
PLAYORDER=
